<svg width="91" height="32" viewBox="0 0 91 32" fill="none" xmlns="http://www.w3.org/2000/svg">
<g clip-path="url(#clip0)">
<path fill-rule="evenodd" clip-rule="evenodd" d="M4.31041 4.78788C-1.30396 10.8604 -1.69434 20.8235 4.68452 27.2656C6.41564 29.0044 8.51792 30.3198 10.8303 31.1111C13.1426 31.9024 15.6036 32.1486 18.0248 31.8308C20.4459 31.5131 22.7628 30.6397 24.7981 29.2778C26.8333 27.9158 28.5328 26.1014 29.7664 23.9735C30.9999 21.8456 31.7347 19.4608 31.9145 17.0018C32.0943 14.5428 31.7143 12.0748 30.8036 9.78703C29.8929 7.49925 28.4757 5.4524 26.6606 3.8033C24.8456 2.15421 22.6807 0.946654 20.3321 0.273169C19.3166 -0.00213686 18.2573 -0.0726358 17.2148 0.065701C16.1723 0.204038 15.167 0.548498 14.2564 1.0794C13.3457 1.61029 12.5476 2.31722 11.9077 3.15977C11.2677 4.00233 10.7984 4.96399 10.5266 5.9898C8.98408 11.805 13.9126 16.9741 19.5351 16.0569C19.8852 15.9986 20.2445 16.0448 20.5689 16.1899C20.8934 16.3349 21.1688 16.5725 21.3614 16.8735C21.554 17.1744 21.6554 17.5256 21.6532 17.8839C21.6509 18.2423 21.5451 18.5921 21.3487 18.8906C20.2643 20.5771 19.0064 21.5846 17.1142 21.935C15.7178 22.1935 14.2758 21.9553 13.0337 21.2609C11.7916 20.5666 10.8262 19.459 10.3016 18.1267H10.2853L10.3206 18.1075C10.6974 17.8891 10.9845 17.5417 11.1301 17.1283C11.2757 16.7148 11.2701 16.2624 11.1144 15.8527C10.9587 15.443 10.6632 15.103 10.2811 14.894C9.89899 14.6851 9.45552 14.6209 9.0307 14.7132C8.60589 14.8054 8.22771 15.048 7.96441 15.3971C7.70112 15.7462 7.57004 16.1788 7.59485 16.6169C7.61965 17.055 7.79869 17.4698 8.09967 17.7863C8.40065 18.1028 8.80374 18.3002 9.23619 18.343C9.7541 19.7668 10.7002 20.9913 11.9419 21.8447C13.1836 22.698 14.6587 23.1376 16.1602 23.1017C17.6617 23.0657 19.1145 22.5561 20.3148 21.6443C21.5151 20.7325 22.4027 19.4642 22.8533 18.0172C22.9906 17.5924 23.2894 17.2401 23.6839 17.0378C24.0784 16.8355 24.5364 16.7998 24.957 16.9385C25.3776 17.0772 25.7264 17.3789 25.9267 17.7773C26.127 18.1758 26.1624 18.6383 26.0251 19.063C23.6774 26.5565 14.1918 29.048 8.55575 23.356C7.10518 21.8895 6.11028 20.027 5.69322 17.9974C5.27616 15.9678 5.4551 13.8593 6.20807 11.9309H6.18096C6.58856 11.9989 7.00695 11.9248 7.36728 11.7207C7.72761 11.5166 8.00841 11.1947 8.16349 10.808C8.31857 10.4213 8.33869 9.99279 8.22053 9.59299C8.10237 9.19319 7.85298 8.84591 7.51338 8.60831C7.17379 8.3707 6.76423 8.25692 6.35208 8.28568C5.93993 8.31444 5.54976 8.48404 5.24575 8.76655C4.94174 9.04907 4.74201 9.42768 4.67942 9.8401C4.61684 10.2525 4.69512 10.6742 4.90139 11.0357C4.98824 11.1887 5.09694 11.328 5.22399 11.4491C2.2772 18.729 7.4307 27.5559 15.9946 27.5559C17.6213 27.5562 19.2298 27.211 20.7158 26.5427C22.2018 25.8744 23.532 24.8979 24.6201 23.6767C25.7081 22.4554 26.5297 21.0168 27.0314 19.454C27.5331 17.8913 27.7038 16.2395 27.5324 14.6058C27.5098 14.3865 27.5301 14.1648 27.5924 13.9535C27.6546 13.7421 27.7574 13.5452 27.895 13.374C28.0326 13.2027 28.2022 13.0606 28.3942 12.9555C28.5861 12.8505 28.7967 12.7847 29.0139 12.7619C29.2311 12.739 29.4506 12.7596 29.6598 12.8225C29.8691 12.8853 30.0641 12.9892 30.2336 13.1281C30.5761 13.4087 30.7941 13.8152 30.8397 14.2581C31.1025 16.7673 30.7374 19.3029 29.7779 21.6326C28.8184 23.9623 27.2953 26.0115 25.3481 27.5924C23.4009 29.1733 21.0919 30.2352 18.6328 30.681C16.1737 31.1267 13.6432 30.9419 11.2732 30.1436C8.90316 29.3452 6.76947 27.9588 5.0677 26.1115C3.36593 24.2642 2.15052 22.015 1.53288 19.5702C0.915232 17.1253 0.915114 14.563 1.53253 12.1181C2.14995 9.67316 3.36516 7.42387 5.06676 5.57639C5.44932 5.7866 5.89379 5.85145 6.31962 5.75918C6.74545 5.66691 7.12445 5.42363 7.38795 5.07342C7.65145 4.72321 7.782 4.28926 7.75594 3.85021C7.72988 3.41115 7.54894 2.99605 7.24591 2.68014C6.94287 2.36423 6.53781 2.16841 6.10411 2.12817C5.67042 2.08793 5.2368 2.20594 4.88185 2.4608C4.52689 2.71566 4.27409 3.09052 4.16926 3.51743C4.06442 3.94434 4.1145 4.39505 4.31041 4.78788Z" fill="#FFAF3F"/>
</g>
<path d="M46.912 11.01C45.652 11.01 44.572 11.478 43.852 12.288L43.402 11.28H41.044V21H44.392V15.816C44.392 14.574 44.986 13.854 46.03 13.854C46.876 13.854 47.308 14.412 47.308 15.546V21H50.656V15.078C50.656 12.612 49.162 11.01 46.912 11.01ZM60.4936 11.28L60.1516 12.036C59.3596 11.37 58.3336 10.992 57.1816 10.992C54.2116 10.992 52.0876 13.134 52.0876 16.14C52.0876 19.164 54.2116 21.324 57.1816 21.324C58.3156 21.324 59.3236 20.964 60.1156 20.316L60.4036 21H62.9956V11.28H60.4936ZM57.6316 18.372C56.3716 18.372 55.4536 17.418 55.4536 16.14C55.4536 14.88 56.3716 13.944 57.6316 13.944C58.8916 13.944 59.8096 14.88 59.8096 16.14C59.8096 17.418 58.8916 18.372 57.6316 18.372ZM74.9905 21L71.6425 15.924L74.6845 11.28H70.9225L68.6005 15.096V7.77H65.2525V21H68.6005V16.896L71.0305 21H74.9905ZM76.0827 10.074H79.3947V7.23H76.0827V10.074ZM74.0307 24.708H75.2907C77.8827 24.708 79.4127 23.232 79.4127 20.748V11.28H76.0647V20.478C76.0647 21.306 75.6507 21.756 74.8587 21.756H74.0307V24.708ZM81.5444 10.074H84.8564V7.23H81.5444V10.074ZM81.5264 21H84.8744V11.28H81.5264V21Z" fill="#FFAF3F"/>
<defs>
<clipPath id="clip0">
<rect width="32" height="32" fill="white"/>
</clipPath>
</defs>
</svg>
